PathFileType	4	(X/Y/Z)	/Users/itak/Documents/Research/Walk-IL/dataset/trc/00474_00167.trc
DataRate	CameraRate	NumFrames	NumMarkers	Units	OrigDataRate	OrigDataStartFrame	OrigNumFrames
100.000000	100.000000	4	53	mm	100.000000	282	564
Frame#	Time	RPSI			LPSI			L3			STRN			T10			C7			CLAV			RBAK			LBAK			LSHO			LUPA			LAEL			LAOL			LWTS			LWPS			LFRA			LIFD			LHPS			LHTS			RSHO			RUPA			RAEL			RAOL			RWTS			RWPS			RFRA			RIFD			RHTS			RHPS			RBHD			LFHD			RFHD			LBHD			LHIP			RHIP			RASI			LASI			LKNE			LTHI			LANK			LTIP			LTOE			LMT1			LMT5			LHEE			RKNE			RTHI			RANK			RTIP			RTOE			RMT1			RMT5			RHEE			
		X1	Y1	Z1	X2	Y2	Z2	X3	Y3	Z3	X4	Y4	Z4	X5	Y5	Z5	X6	Y6	Z6	X7	Y7	Z7	X8	Y8	Z8	X9	Y9	Z9	X10	Y10	Z10	X11	Y11	Z11	X12	Y12	Z12	X13	Y13	Z13	X14	Y14	Z14	X15	Y15	Z15	X16	Y16	Z16	X17	Y17	Z17	X18	Y18	Z18	X19	Y19	Z19	X20	Y20	Z20	X21	Y21	Z21	X22	Y22	Z22	X23	Y23	Z23	X24	Y24	Z24	X25	Y25	Z25	X26	Y26	Z26	X27	Y27	Z27	X28	Y28	Z28	X29	Y29	Z29	X30	Y30	Z30	X31	Y31	Z31	X32	Y32	Z32	X33	Y33	Z33	X34	Y34	Z34	X35	Y35	Z35	X36	Y36	Z36	X37	Y37	Z37	X38	Y38	Z38	X39	Y39	Z39	X40	Y40	Z40	X41	Y41	Z41	X42	Y42	Z42	X43	Y43	Z43	X44	Y44	Z44	X45	Y45	Z45	X46	Y46	Z46	X47	Y47	Z47	X48	Y48	Z48	X49	Y49	Z49	X50	Y50	Z50	X51	Y51	Z51	X52	Y52	Z52	X53	Y53	Z53	

283	2.82	115.3719635009766	917.8701782226562	-473.4459838867188	200.2759399414062	933.4268188476562	-589.9908447265625	160.5616760253906	1039.099365234375	-511.4055480957031	334.6845703125	1230.543701171875	-289.0561828613281	155.7577362060547	1162.674194335938	-519.180908203125	178.6715087890625	1425.112548828125	-449.1153564453125	299.9794616699219	1343.074340820312	-306.3689270019531	78.49375915527344	1295.875366210938	-448.8145141601562	251.9748382568359	1389.566040039062	-534.4779052734375	368.8731994628906	1419.992797851562	-483.3675842285156	472.1095581054688	1317.51220703125	-529.0974731445312	555.9085693359375	1124.789672851562	-471.8857421875	488.8849792480469	1069.280151367188	-531.780517578125	499.5126647949219	1031.326293945312	-280.5659484863281	557.70751953125	988.9164428710938	-300.3613586425781	562.6740112304688	1071.2978515625	-398.4153137207031	509.1267395019531	920.41162109375	-165.6803436279297	556.652587890625	939.377685546875	-241.5183410644531	507.2097778320312	981.5615844726562	-209.8984985351562	89.57350158691406	1385.248901367188	-299.9879150390625	16.50747489929199	1326.08154296875	-275.7209777832031	-44.20499420166016	1042.1572265625	-289.9156494140625	-49.73712158203125	1048.297485351562	-357.2978515625	21.04010772705078	818.208740234375	-327.0691528320312	-67.07131958007812	822.5244750976562	-316.5573120117188	-59.01668930053711	985.0457763671875	-297.4861450195312	-21.32218551635742	671.0723876953125	-363.0320129394531	3.314253807067871	721.412353515625	-340.3729858398438	-73.60698699951172	736.8474731445312	-334.4994201660156	114.4288635253906	1602.258911132812	-356.8815612792969	296.1079406738281	1655.228515625	-274.5021057128906	173.7583923339844	1631.618896484375	-236.0489501953125	274.3414306640625	1637.6181640625	-424.7282104492188	397.5964050292969	865.0955200195312	-605.0928344726562	161.5745239257812	813.9661865234375	-286.3908386230469	262.7341613769531	880.5640258789062	-285.817626953125	418.7008972167969	907.0259399414062	-483.7995300292969	543.2194213867188	476.8498840332031	-563.662353515625	536.8087768554688	632.7621459960938	-568.5919799804688	225.9381408691406	254.51416015625	-747.2116088867188	444.8611450195312	371.2235107421875	-639.2403564453125	350.2018127441406	88.69792175292969	-633.79833984375	289.2837524414062	139.7260894775391	-620.5020141601562	329.9836120605469	148.793701171875	-724.1455688476562	171.947265625	283.4905395507812	-698.78662109375	368.2127075195312	464.21533203125	-308.3140258789062	250.5814514160156	695.649169921875	-262.2012023925781	357.5450134277344	48.49175643920898	-367.5048522949219	393.9617004394531	319.7813720703125	-316.4960021972656	582.9381713867188	36.60974502563477	-383.0018920898438	519.9010620117188	44.74151611328125	-426.3741149902344	484.6612243652344	45.17551040649414	-323.1920776367188	300.2338256835938	44.69472503662109	-421.3951110839844	
284	2.83	124.2143707275391	921.8173217773438	-481.9877319335938	215.9771423339844	937.919677734375	-593.0675659179688	172.1451110839844	1042.991943359375	-515.8446655273438	337.0563049316406	1233.749145507812	-285.1888732910156	167.8846435546875	1166.594116210938	-522.8274536132812	188.7469787597656	1429.097900390625	-451.3094787597656	303.8647155761719	1346.497924804688	-304.0283813476562	87.72250366210938	1300.39794921875	-455.4276733398438	264.8980102539062	1393.320922851562	-533.8155517578125	380.1250305175781	1422.609619140625	-478.3634948730469	483.7098999023438	1319.537353515625	-521.9620361328125	564.5533447265625	1125.62060546875	-466.2946472167969	498.1802673339844	1071.490234375	-527.8519287109375	504.283447265625	1031.6474609375	-276.5821838378906	561.9925537109375	988.4430541992188	-296.061279296875	569.5613403320312	1071.441040039062	-393.1686096191406	511.6162109375	919.8885498046875	-162.3531799316406	559.787109375	938.6505126953125	-237.7012939453125	510.7951965332031	981.3853149414062	-206.114013671875	93.30070495605469	1389.405395507812	-306.2149963378906	19.22163391113281	1330.243896484375	-285.0117797851562	-40.64738082885742	1045.643676757812	-300.2928771972656	-42.78969955444336	1050.810546875	-367.9733581542969	28.1427116394043	821.8331909179688	-330.8073120117188	-60.44252014160156	825.6476440429688	-325.2586975097656	-54.65644073486328	988.318603515625	-307.818359375	-11.01936435699463	673.947021484375	-366.7966003417969	11.78655624389648	724.6681518554688	-343.5080871582031	-65.31398773193359	739.643310546875	-342.3163757324219	121.4598236083984	1606.057006835938	-361.0524291992188	299.8167419433594	1658.314453125	-271.118896484375	175.9820404052734	1634.626953125	-237.7029266357422	284.1080322265625	1641.568969726562	-422.1759643554688	414.46923828125	871.1271362304688	-597.224853515625	159.5612030029297	815.5025634765625	-293.7160949707031	260.9341125488281	882.1500854492188	-286.0785827636719	427.6846923828125	911.0150756835938	-474.5284729003906	565.1913452148438	486.8515319824219	-546.0095825195312	556.16845703125	642.1197509765625	-552.0048828125	263.4211120605469	259.6185302734375	-748.7771606445312	473.3858642578125	380.1799011230469	-627.7821044921875	387.1363525390625	96.81293487548828	-630.3377685546875	323.724609375	145.3937225341797	-620.049560546875	369.7068176269531	157.2607269287109	-721.1283569335938	205.9702758789062	286.1652526855469	-702.898681640625	364.9916381835938	464.8389892578125	-308.4508972167969	246.3213043212891	696.4300537109375	-266.0972595214844	357.7122802734375	49.34467697143555	-371.804443359375	391.1396179199219	320.4277038574219	-316.7510681152344	583.8421630859375	36.36514282226562	-381.3498840332031	521.6702270507812	45.24517440795898	-425.8749084472656	483.81884765625	45.42356109619141	-323.9583740234375	302.4088134765625	46.681884765625	-427.9822387695312	
285	2.84	133.6786346435547	925.6709594726562	-490.539794921875	231.8148956298828	942.58349609375	-595.8125610351562	183.7903900146484	1046.83837890625	-520.26220703125	339.0436706542969	1236.95654296875	-281.6556091308594	180.0259246826172	1170.483154296875	-526.3285522460938	198.7323455810547	1433.112426757812	-453.510009765625	307.4642333984375	1349.927978515625	-301.9410400390625	97.01077270507812	1304.952880859375	-462.067138671875	277.5763549804688	1397.012451171875	-533.0526733398438	390.9607849121094	1425.200439453125	-473.3346862792969	494.8644409179688	1321.571044921875	-514.845703125	572.8401489257812	1126.495849609375	-460.9442443847656	507.1646423339844	1073.764282226562	-524.1790771484375	508.8738098144531	1031.881103515625	-272.950927734375	566.0545654296875	987.9036254882812	-292.2287292480469	576.1748046875	1071.591552734375	-388.2483215332031	514.0466918945312	919.0638427734375	-159.6207885742188	562.7726440429688	937.785400390625	-234.4611358642578	514.2586669921875	980.9948120117188	-202.7672271728516	97.13687896728516	1393.626831054688	-312.6957702636719	22.16629981994629	1334.454223632812	-294.59619140625	-36.77575302124023	1049.14892578125	-310.8409729003906	-35.614013671875	1053.329956054688	-378.6237182617188	35.2799072265625	825.6270141601562	-334.3774108886719	-53.51962280273438	828.7828369140625	-333.7498779296875	-49.95688247680664	991.6366577148438	-318.2443237304688	-0.4397833645343781	676.9959106445312	-370.3343505859375	20.41517639160156	728.1268920898438	-346.4575805664062	-56.67663192749023	742.4519653320312	-349.9186401367188	128.4778289794922	1609.9013671875	-365.2125244140625	303.2689514160156	1661.365966796875	-267.9234619140625	178.1718444824219	1637.613403320312	-239.5569152832031	293.5970764160156	1645.544189453125	-419.5597229003906	430.7632446289062	877.1735229492188	-588.7540893554688	157.7835235595703	817.16748046875	-301.8953247070312	258.893310546875	883.8341064453125	-287.0973815917969	435.9250183105469	915.04345703125	-465.2177124023438	585.16064453125	496.6065368652344	-527.2374877929688	573.8272705078125	651.300048828125	-534.1265258789062	300.3219299316406	265.2435302734375	-749.3097534179688	500.4060974121094	389.153564453125	-615.1801147460938	422.89501953125	105.2107238769531	-625.6546020507812	357.2999572753906	151.3960113525391	-618.618896484375	408.3507385253906	166.0751800537109	-716.7842407226562	239.5989990234375	289.273193359375	-706.296630859375	361.6007385253906	465.5726318359375	-309.1006164550781	241.9628143310547	697.3435668945312	-270.7868041992188	358.1822814941406	50.27254104614258	-376.9355773925781	388.1348876953125	321.1613159179688	-317.5082092285156	584.8770751953125	36.08294296264648	-379.179443359375	523.8839111328125	45.94736480712891	-425.1452026367188	482.7819213867188	45.63825225830078	-324.8733825683594	305.3012084960938	48.95845031738281	-435.6314086914062	
286	2.85	143.7256469726562	929.5072021484375	-499.043701171875	247.8056793212891	947.3966674804688	-598.1370849609375	195.5053558349609	1050.61279296875	-524.5977172851562	340.6784057617188	1240.16259765625	-278.4535217285156	192.1897430419922	1174.33203125	-529.68017578125	208.6294555664062	1437.11962890625	-455.71240234375	310.8053894042969	1353.350341796875	-300.1195983886719	106.3794403076172	1309.508056640625	-468.7034912109375	289.9939270019531	1400.604248046875	-532.1983642578125	401.3797912597656	1427.7587890625	-468.3145751953125	505.5799560546875	1323.6220703125	-507.7901916503906	580.7958374023438	1127.44482421875	-455.8251953125	515.868408203125	1076.083984375	-520.7473754882812	513.2152709960938	1032.06494140625	-269.6695251464844	569.8836669921875	987.3736572265625	-288.8032531738281	582.522705078125	1071.796997070312	-383.6233825683594	516.3089599609375	918.0244140625	-157.4383392333984	565.5811157226562	936.8798828125	-231.7146301269531	517.4971923828125	980.4593505859375	-199.8436279296875	101.107177734375	1397.896362304688	-319.4027709960938	25.36426734924316	1338.7041015625	-304.3962097167969	-32.54516983032227	1052.673095703125	-321.4527282714844	-28.21142959594727	1055.865966796875	-389.1648559570312	42.49491500854492	829.6005249023438	-337.8053894042969	-46.27246856689453	831.9429321289062	-341.9481506347656	-44.87184143066406	994.9913330078125	-328.6667785644531	10.36331272125244	680.2300415039062	-373.5934143066406	29.20217895507812	731.8005981445312	-349.2162170410156	-47.7006721496582	745.2965698242188	-357.1732482910156	135.5040740966797	1613.767700195312	-369.363525390625	306.4786987304688	1664.35693359375	-264.9109497070312	180.3367614746094	1640.556396484375	-241.6049194335938	302.8162841796875	1649.51220703125	-416.8822937011719	446.475830078125	883.2133178710938	-579.6454467773438	156.3615570068359	818.9566650390625	-310.8870849609375	256.6734313964844	885.5713500976562	-288.8352966308594	443.4372863769531	919.1177368164062	-455.8490600585938	603.021240234375	505.9677429199219	-507.5610961914062	589.6668090820312	660.1851806640625	-515.1522216796875	336.3970947265625	271.3134460449219	-748.6257934570312	525.7657470703125	398.0028381347656	-601.5220336914062	457.4602355957031	113.7778472900391	-619.8958129882812	389.9898986816406	157.5841827392578	-616.2274780273438	445.8043823242188	175.2551116943359	-711.153076171875	272.64794921875	292.697021484375	-708.7698364257812	358.1333312988281	466.3961181640625	-310.2775573730469	237.5942535400391	698.365234375	-276.2588195800781	359.1046752929688	51.29889297485352	-382.9485778808594	385.0395812988281	321.9680786132812	-318.8205871582031	586.054931640625	35.74929046630859	-376.4026794433594	526.6113891601562	46.87516403198242	-424.1052856445312	481.5865783691406	45.78866577148438	-325.9607543945312	309.1339416503906	51.53613662719727	-444.3359680175781	
